<?xml version="1.0" ?><svg id="Layer_2" style="enable-background:new 0 0 32 32;" version="1.1" viewBox="0 0 32 32" xml:space="preserve" xmlns="http://www.w3.org/2000/svg" xmlns:xlink="http://www.w3.org/1999/xlink"><g><path d="M7.70001,23.20001c3.28998,0,6.07001-2.23004,6.91998-5.26001h7.31v2.89996c0,1.07001,0.87,1.94,1.94,1.94   c1.06,0,1.92999-0.87,1.92999-1.94V17.94H27.62v2.89996c0,1.07001,0.87,1.94,1.94,1.94s1.94-0.87,1.94-1.94V16   c0-1.07001-0.87-1.94-1.94-1.94H14.62c-0.84998-3.03003-3.63-5.26001-6.91998-5.26001C3.72998,8.79999,0.5,12.02997,0.5,16   C0.5,19.96997,3.72998,23.20001,7.70001,23.20001z M7.70001,12.67999c1.83002,0,3.32001,1.48999,3.32001,3.32001   c0,1.82996-1.48999,3.32001-3.32001,3.32001S4.38,17.82996,4.38,16C4.38,14.16998,5.87,12.67999,7.70001,12.67999z"/></g></svg>